Coordinates
version=1
nRows=13
nColumns=40
inDegrees=yes

Units are S.I. units (second, meters, Newtons, ...)
If the header above contains a line with 'inDegrees', this indicates whether rotational values are in degrees (yes) or radians (no).

endheader
time	pelvis_tilt	pelvis_list	pelvis_rotation	pelvis_tx	pelvis_ty	pelvis_tz	hip_flexion_r	hip_adduction_r	hip_rotation_r	knee_angle_r	knee_angle_r_beta	ankle_angle_r	subtalar_angle_r	mtp_angle_r	hip_flexion_l	hip_adduction_l	hip_rotation_l	knee_angle_l	knee_angle_l_beta	ankle_angle_l	subtalar_angle_l	mtp_angle_l	lumbar_extension	lumbar_bending	lumbar_rotation	arm_flex_r	arm_add_r	arm_rot_r	elbow_flex_r	pro_sup_r	wrist_flex_r	wrist_dev_r	arm_flex_l	arm_add_l	arm_rot_l	elbow_flex_l	pro_sup_l	wrist_flex_l	wrist_dev_l
      2.55000000	    -21.12574199	     -2.46252517	     -0.71554436	     -0.31903147	      0.81272011	     -0.98440941	     25.33801075	     -7.62187042	      9.31478684	     92.27991768	      1.61058840	    -19.68464957	      0.00000000	      0.00000000	     62.71581492	     -3.72824293	     -4.32975048	     71.92516790	      1.25533099	     17.33882148	      0.00000000	      0.00000000	    -12.91086347	     -9.28542992	      8.90780266	     71.49624740	     -7.21267386	     24.95964478	     78.38423207	     77.80156376	      0.00000000	      0.00000000	     74.62031058	    -13.11902075	     31.78625901	     75.41974565	     69.69955732	      0.00000000	      0.00000000
      2.55500000	    -21.09602361	     -2.36401929	     -0.70921970	     -0.31927037	      0.81181086	     -0.98445140	     25.26299128	     -7.77929708	      9.29879518	     92.27147817	      1.61044110	    -19.64371880	      0.00000000	      0.00000000	     62.77808003	     -3.65795830	     -4.40588551	     72.08729367	      1.25816062	     17.45751706	      0.00000000	      0.00000000	    -13.06076247	     -9.41896967	      8.94958330	     71.51599060	     -7.26694282	     24.71432053	     78.34474099	     80.53763449	      0.00000000	      0.00000000	     74.76638388	    -12.95623196	     31.69001663	     75.16220956	     71.68093591	      0.00000000	      0.00000000
      2.56000000	    -21.26344230	     -2.44189387	     -0.89377333	     -0.31960826	      0.81045226	     -0.98405507	     25.45446919	     -7.54056203	      9.50187527	     92.41153973	      1.61288564	    -19.32128419	      0.00000000	      0.00000000	     63.20142989	     -3.78200120	     -4.13859713	     72.51088727	      1.26555373	     17.38903937	      0.00000000	      0.00000000	    -12.96497894	     -9.34343471	      8.98160023	     71.59274726	     -7.07499074	     24.92140416	     78.39057353	     78.18777343	      0.00000000	      0.00000000	     74.69160215	    -13.19292689	     31.65206181	     75.63822168	     69.12454940	      0.00000000	      0.00000000
      2.56500000	    -21.35612486	     -2.41495018	     -0.82806756	     -0.31991229	      0.80947480	     -0.98422578	     25.49779511	     -7.65788587	      9.35282380	     92.36897683	      1.61214277	    -19.58731059	      0.00000000	      0.00000000	     63.35185339	     -3.78577057	     -4.32557262	     72.55508004	      1.26632504	     17.49886626	      0.00000000	      0.00000000	    -12.97361872	     -9.37278634	      8.94395392	     71.63500669	     -7.10566080	     24.72850359	     78.22752334	     80.89651056	      0.00000000	      0.00000000	     74.80006045	    -13.09430584	     31.58916504	     75.25621472	     72.15032211	      0.00000000	      0.00000000
      2.57000000	    -21.40159991	     -2.28858873	     -0.83125434	     -0.32023457	      0.80871368	     -0.98430476	     25.47321358	     -7.78647484	      9.45040362	     92.27515068	      1.61050520	    -19.60458235	      0.00000000	      0.00000000	     63.48348076	     -3.69579577	     -4.44216577	     72.67295653	      1.26838237	     17.77254534	      0.00000000	      0.00000000	    -13.05695795	     -9.51899323	      8.91417785	     71.67004343	     -7.11904976	     24.69381103	     78.25239034	     80.59722278	      0.00000000	      0.00000000	     74.87366428	    -13.06506106	     31.68356956	     75.22324647	     71.25685264	      0.00000000	      0.00000000
      2.57500000	    -21.30027979	     -2.08475149	     -1.02969145	     -0.32003920	      0.80779977	     -0.98402704	     25.31995421	     -7.93418629	      9.71652027	     92.25386658	      1.61013372	    -19.53448642	      0.00000000	      0.00000000	     63.33926641	     -3.82433665	     -4.84193075	     72.81877026	      1.27092730	     17.95244615	      0.00000000	      0.00000000	    -13.21637902	     -9.77749471	      9.00980428	     71.74418008	     -7.01978863	     24.71523026	     78.15892594	     80.92466514	      0.00000000	      0.00000000	     74.93124427	    -13.15343917	     31.67590718	     75.25560163	     71.40095738	      0.00000000	      0.00000000
      2.58000000	    -21.21378695	     -1.79348228	     -1.02095609	     -0.32024986	      0.80722319	     -0.98422224	     25.20755641	     -8.25043954	      9.84062530	     92.28234748	      1.61063081	    -19.51636453	      0.00000000	      0.00000000	     63.34218772	     -3.59151873	     -5.01987060	     72.94284673	      1.27309284	     18.00229272	      0.00000000	      0.00000000	    -13.46364313	    -10.10239627	      8.94302924	     71.78318181	     -7.02498390	     24.61389963	     78.22978636	     80.22536047	      0.00000000	      0.00000000	     75.06396007	    -13.05839150	     31.60687547	     75.15373072	     71.98513437	      0.00000000	      0.00000000
      2.58500000	    -21.47579712	     -2.08149041	     -0.97694939	     -0.32072456	      0.80559915	     -0.98420386	     25.38851337	     -7.95180971	      9.68568620	     92.23665464	      1.60983331	    -19.62566016	      0.00000000	      0.00000000	     63.91892190	     -3.73039467	     -4.69634641	     73.34823839	      1.28016826	     17.98106397	      0.00000000	      0.00000000	    -13.28640491	     -9.77527890	      8.84714042	     71.86939521	     -6.93453176	     24.65770877	     78.11248498	     80.60643428	      0.00000000	      0.00000000	     75.21187805	    -13.08696120	     32.63517707	     75.22738996	     71.33151334	      0.00000000	      0.00000000
      2.59000000	    -21.66978988	     -2.25509497	     -0.92508696	     -0.32121580	      0.80425996	     -0.98421186	     25.53155302	     -7.78853413	      9.54799394	     92.26759891	      1.61037339	    -19.59438190	      0.00000000	      0.00000000	     64.34637680	     -3.77557300	     -4.45981555	     73.61708876	      1.28486058	     17.98197437	      0.00000000	      0.00000000	    -13.17905764	     -9.57029696	      8.82944801	     71.94626007	     -6.94483368	     24.66278967	     78.07413885	     80.52404935	      0.00000000	      0.00000000	     75.25027677	    -13.07972827	     32.66020975	     75.18136035	     71.17385662	      0.00000000	      0.00000000
      2.59500000	    -21.49295523	     -1.95758416	     -0.90873065	     -0.32128169	      0.80380128	     -0.98435585	     25.29750192	     -8.18590300	      9.58868433	     92.22852244	      1.60969138	    -19.62190617	      0.00000000	      0.00000000	     64.16162010	     -3.57680618	     -4.71215821	     73.67697569	      1.28590581	     18.03225576	      0.00000000	      0.00000000	    -13.52430726	     -9.90458543	      8.77270394	     71.98785709	     -6.95795833	     24.52537345	     78.13075496	     80.47509157	      0.00000000	      0.00000000	     75.42342278	    -12.99465680	     32.81118535	     75.05950448	     70.14120348	      0.00000000	      0.00000000
      2.60000000	    -21.79535261	     -2.19967162	     -1.00662191	     -0.32172820	      0.80214013	     -0.98398346	     25.58490762	     -7.77261160	      9.61737481	     92.32260217	      1.61133338	    -19.44086519	      0.00000000	      0.00000000	     64.73955997	     -3.86304748	     -4.56564676	     74.05553757	      1.29251296	     18.15439754	      0.00000000	      0.00000000	    -13.26107905	     -9.64497036	      8.79048923	     72.04027358	     -6.83145754	     24.61020792	     78.03836963	     80.90529867	      0.00000000	      0.00000000	     75.39258013	    -13.17604235	     32.74023858	     75.29592892	     70.34845675	      0.00000000	      0.00000000
      2.60500000	    -21.75980815	     -2.06183611	     -0.97419249	     -0.32200329	      0.80134242	     -0.98413110	     25.49812951	     -8.01059552	      9.60375236	     92.26207600	      1.61027700	    -19.54125600	      0.00000000	      0.00000000	     64.70525949	     -3.76516383	     -4.72424102	     74.10576197	      1.29338954	     18.34608542	      0.00000000	      0.00000000	    -13.43281775	     -9.79383705	      8.74030106	     72.10997064	     -6.84683239	     24.55439182	     78.03456935	     80.90903366	      0.00000000	      0.00000000	     75.50387081	    -13.12001279	     32.72099155	     75.16719311	     70.93456252	      0.00000000	      0.00000000
      2.61000000	    -21.90950822	     -2.16466898	     -1.03514394	     -0.32240901	      0.80017967	     -0.98379380	     25.63826668	     -7.82494300	      9.61129927	     92.34147425	      1.61166276	    -19.41561766	      0.00000000	      0.00000000	     65.05739231	     -3.94065778	     -4.67675543	     74.39241799	      1.29839263	     18.31362716	      0.00000000	      0.00000000	    -13.38276650	     -9.69511345	      8.76751441	     72.22383717	     -6.82963673	     24.76036233	     77.98338652	     79.63805732	      0.00000000	      0.00000000	     75.55700872	    -13.18735070	     32.82081595	     75.29658893	     68.80449651	      0.00000000	      0.00000000
